<mxfile host="app.diagrams.net" modified="2024-05-20T04:39:25.077Z" agent="Mozilla/5.0 (Windows NT 10.0; Win64; x64) AppleWebKit/537.36 (KHTML, like Gecko) Chrome/124.0.0.0 Safari/537.36" etag="LggQ3CzrDWtayFx6Nsin" version="24.4.4" type="github">
  <diagram id="prtHgNgQTEPvFCAcTncT" name="Page-1">
    <mxGraphModel dx="1877" dy="557" grid="1" gridSize="10" guides="1" tooltips="1" connect="1" arrows="1" fold="1" page="1" pageScale="1" pageWidth="827" pageHeight="1169" math="0" shadow="0">
      <root>
        <mxCell id="0" />
        <mxCell id="1" parent="0" />
        <mxCell id="6EF6GnRSIRil4PdyylUV-1" value="Attributes:&amp;nbsp;&lt;div&gt;id, name, xPercentage, yPercentage&lt;/div&gt;" style="whiteSpace=wrap;html=1;aspect=fixed;align=left;" vertex="1" parent="1">
          <mxGeometry x="-452" y="80" width="110" height="110" as="geometry" />
        </mxCell>
        <mxCell id="6EF6GnRSIRil4PdyylUV-2" value="Game Object" style="rounded=0;whiteSpace=wrap;html=1;" vertex="1" parent="1">
          <mxGeometry x="-450" y="70" width="110" height="20" as="geometry" />
        </mxCell>
        <mxCell id="6EF6GnRSIRil4PdyylUV-3" value="" style="endArrow=classic;html=1;rounded=0;" edge="1" parent="1">
          <mxGeometry width="50" height="50" relative="1" as="geometry">
            <mxPoint x="-450" y="190" as="sourcePoint" />
            <mxPoint x="-510" y="250" as="targetPoint" />
          </mxGeometry>
        </mxCell>
        <mxCell id="6EF6GnRSIRil4PdyylUV-4" value="" style="whiteSpace=wrap;html=1;aspect=fixed;" vertex="1" parent="1">
          <mxGeometry x="-590" y="250" width="110" height="110" as="geometry" />
        </mxCell>
        <mxCell id="6EF6GnRSIRil4PdyylUV-5" value="Player" style="rounded=0;whiteSpace=wrap;html=1;" vertex="1" parent="1">
          <mxGeometry x="-590" y="250" width="110" height="30" as="geometry" />
        </mxCell>
      </root>
    </mxGraphModel>
  </diagram>
</mxfile>
